<svg viewBox="0 0 16 16" fill="none" xmlns="http://www.w3.org/2000/svg"><path d="M9.42.36c-.47 0-.9.25-1.19.61-.28.36-.44.8-.55 1.26-.18.74-.23 1.56-.25 2.3-1.3.09-2.5.5-3.48 1.13-.4-.36-.88-.55-1.34-.55-.53 0-1.03.25-1.4.74-.71.93-.63 2.46.2 3.36-.06.28-.1.57-.1.86 0 3.08 3 5.57 6.69 5.57 3.7 0 6.69-2.5 6.69-5.57 0-.29-.04-.58-.1-.86.83-.9.91-2.43.2-3.36a1.75 1.75 0 0 0-1.4-.74c-.46 0-.94.2-1.34.55a7.4 7.4 0 0 0-3.47-1.13c.02-.69.07-1.4.2-1.93.08-.33.18-.58.28-.7.1-.14.18-.2.36-.2.37 0 .42.13.65.44.11.16.25.35.46.55.21.19.53.35.87.35v-1.34c-.1 0-.12 0-.18-.06-.07-.06-.15-.2-.28-.38-.26-.36-.77-.9-1.52-.9Zm3.67.13c-.88 0-1.59.84-1.59 1.88s.71 1.88 1.6 1.88c.87 0 1.59-.84 1.59-1.88s-.72-1.88-1.6-1.88Zm0 .67c.57 0 1.03.54 1.03 1.21 0 .67-.46 1.22-1.03 1.22-.56 0-1.02-.55-1.02-1.22 0-.67.46-1.21 1.02-1.21Zm-5.09 4.41c3.13 0 5.78 2.07 5.78 4.5 0 2.44-2.65 4.5-5.78 4.5-3.13 0-5.78-2.06-5.78-4.5 0-2.43 2.65-4.5 5.78-4.5Zm-5.38.61c.16 0 .32.04.48.13a5.45 5.45 0 0 0-1.32 1.75c-.22-.52-.16-1.16.1-1.5a.9.9 0 0 1 .74-.38Zm10.76 0a.9.9 0 0 1 .74.38c.26.34.32.98.1 1.5a5.45 5.45 0 0 0-1.32-1.75.96.96 0 0 1 .48-.13Zm-7.64 1.67c-.57 0-1.03.55-1.03 1.22 0 .67.46 1.21 1.03 1.21.56 0 1.02-.54 1.02-1.21 0-.67-.46-1.22-1.02-1.22Zm4.52 0c-.56 0-1.02.55-1.02 1.22 0 .67.46 1.21 1.02 1.21.57 0 1.03-.54 1.03-1.21 0-.67-.46-1.22-1.03-1.22Zm-5.07 4.13a3.1 3.1 0 0 0 2.81 1.73c1.34 0 2.47-.85 2.83-1.74-.65.5-1.69.84-2.83.84a4.73 4.73 0 0 1-2.81-.84Z" fill="#fff"/></svg>
