<svg xmlns="http://www.w3.org/2000/svg" xmlns:xlink="http://www.w3.org/1999/xlink"><symbol id="sprite-advantages-star" fill="none" viewBox="0 0 18 22"><path fill="#fff" d="m9 0 3.01 5.47 5.99.03-2.97 5.5 2.97 5.5-5.99.03-3.01 5.47-3.01-5.47-5.99-.03 2.97-5.5-2.97-5.5 5.99-.03z"/></symbol><use xlink:href="#sprite-advantages-star" width="18" height="22"/><view id="sprite-advantages-star-view" viewBox="0 0 18 22"/><symbol id="sprite-angle" fill="none" viewBox="0 0 18 18"><path fill="#fff" d="M18 18a18 18 0 0 1-18-18v18z"/></symbol><use xlink:href="#sprite-angle" width="18" height="18" y="22"/><view id="sprite-angle-view" viewBox="0 22 18 18"/><symbol id="sprite-arrow-button" fill="none" viewBox="0 0 8 8"><path stroke="#fff" stroke-width="1.6" d="m.8 7.2 6.4-6.4m0 0h-6.4m6.4-.8v7.2"/></symbol><use xlink:href="#sprite-arrow-button" width="8" height="8" y="40"/><view id="sprite-arrow-button-view" viewBox="0 40 8 8"/><symbol id="sprite-arrow-select" fill="none" viewBox="0 0 16 9"><path stroke="#fff" d="m15.27 1.09-7.27 6.55-7.27-6.55"/></symbol><use xlink:href="#sprite-arrow-select" width="16" height="9" y="48"/><view id="sprite-arrow-select-view" viewBox="0 48 16 9"/><symbol id="sprite-arrow-swiper-button" fill="none" viewBox="0 0 10 10"><g clip-path="url(#a)"><path stroke="#316DC2" stroke-width="1.67" d="M0 4.74h8.33m0 0-4.13 4.43m4.14-4.43-4.14-3.9"/></g><defs><clipPath id="a"><path fill="#fff" d="M0 0h10v10h-10z"/></clipPath></defs></symbol><use xlink:href="#sprite-arrow-swiper-button" width="10" height="10" y="57"/><view id="sprite-arrow-swiper-button-view" viewBox="0 57 10 10"/><symbol id="sprite-burger-button" fill="none" viewBox="0 0 16 8"><path stroke="#fff" stroke-linecap="round" stroke-width=".8" d="M.8.8h14.4m-14.4 3.2h14.4m-14.4 3.2h14.4"/></symbol><use xlink:href="#sprite-burger-button" width="16" height="8" y="67"/><view id="sprite-burger-button-view" viewBox="0 67 16 8"/><symbol id="sprite-check-mark" fill="none" viewBox="0 0 10 8"><path stroke="#316DC2" stroke-linecap="round" stroke-linejoin="round" d="m1 3.5 2.95 3.5 5.05-6"/></symbol><use xlink:href="#sprite-check-mark" width="10" height="8" y="75"/><view id="sprite-check-mark-view" viewBox="0 75 10 8"/><symbol id="sprite-classmates" fill="none" viewBox="0 0 10 16"><path fill="#fff" d="M5 2.42c.96 0 1.74.77 1.74 1.71s-.78 1.7-1.74 1.7-1.74-.76-1.74-1.7.78-1.71 1.74-1.71m0 5.84a4.2 4.2 0 0 0 4.21-4.13 4.2 4.2 0 0 0-4.21-4.13 4.17 4.17 0 0 0-4.21 4.13 4.17 4.17 0 0 0 4.21 4.13m1.7 3.37q1.3-.3 2.45-1c.58-.35.75-1.1.39-1.66a1.25 1.25 0 0 0-1.7-.39 5.4 5.4 0 0 1-5.68 0 1.24 1.24 0 0 0-1.7.39 1.2 1.2 0 0 0 .39 1.66q1.15.7 2.45 1l-2.36 2.3a1.2 1.2 0 0 0 0 1.71 1.25 1.25 0 0 0 1.75 0l2.31-2.26 2.32 2.26c.48.48 1.26.48 1.74 0a1.2 1.2 0 0 0 0-1.7z"/></symbol><use xlink:href="#sprite-classmates" width="10" height="16" y="83"/><view id="sprite-classmates-view" viewBox="0 83 10 16"/><symbol id="sprite-cross" fill="none" viewBox="0 0 18 18"><path stroke="#316DC2" stroke-linecap="round" stroke-linejoin="round" d="m1 17 8-8m0 0 8-8m-8 8 8 8m-8-8-8-8"/></symbol><use xlink:href="#sprite-cross" width="18" height="18" y="99"/><view id="sprite-cross-view" viewBox="0 99 18 18"/><symbol id="sprite-reddit" fill="none" viewBox="0 0 16 16"><path fill="#fff" d="M9.42.36c-.47 0-.9.25-1.19.61q-.4.56-.55 1.26c-.18.74-.23 1.56-.25 2.3-1.3.09-2.5.5-3.48 1.13-.4-.36-.88-.55-1.34-.55-.53 0-1.03.25-1.4.74-.71.93-.63 2.46.2 3.36q-.1.42-.1.86c0 3.08 3 5.57 6.69 5.57s6.69-2.5 6.69-5.57q0-.44-.1-.86c.83-.9.91-2.43.2-3.36a1.8 1.8 0 0 0-1.4-.74c-.46 0-.94.2-1.34.55a7.4 7.4 0 0 0-3.47-1.13c.02-.69.07-1.4.2-1.93q.12-.5.28-.7c.1-.14.18-.2.36-.2.37 0 .42.13.65.44q.15.25.46.55c.21.19.53.35.87.35v-1.34c-.1 0-.12 0-.18-.06q-.1-.1-.28-.38c-.26-.36-.77-.9-1.52-.9m3.67.13c-.88 0-1.59.84-1.59 1.88s.71 1.88 1.6 1.88c.87 0 1.59-.84 1.59-1.88s-.72-1.88-1.6-1.88m0 .67c.57 0 1.03.54 1.03 1.21s-.46 1.22-1.03 1.22c-.56 0-1.02-.55-1.02-1.22s.46-1.21 1.02-1.21m-5.09 4.41c3.13 0 5.78 2.07 5.78 4.5s-2.65 4.5-5.78 4.5-5.78-2.06-5.78-4.5 2.65-4.5 5.78-4.5m-5.38.61q.24 0 .48.13a6 6 0 0 0-1.32 1.75c-.22-.52-.16-1.16.1-1.5a.9.9 0 0 1 .74-.38m10.76 0a.9.9 0 0 1 .74.38c.26.34.32.98.1 1.5a6 6 0 0 0-1.32-1.75 1 1 0 0 1 .48-.13m-7.64 1.67c-.57 0-1.03.55-1.03 1.22s.46 1.21 1.03 1.21c.56 0 1.02-.54 1.02-1.21s-.46-1.22-1.02-1.22m4.52 0c-.56 0-1.02.55-1.02 1.22s.46 1.21 1.02 1.21 1.03-.54 1.03-1.21-.46-1.22-1.03-1.22m-5.07 4.13a3.1 3.1 0 0 0 2.81 1.73c1.34 0 2.47-.85 2.83-1.74-.65.5-1.69.84-2.83.84a4.7 4.7 0 0 1-2.81-.84Z"/></symbol><use xlink:href="#sprite-reddit" width="16" height="16" y="117"/><view id="sprite-reddit-view" viewBox="0 117 16 16"/><symbol id="sprite-vk" fill="none" viewBox="0 0 16 10"><path fill="#fff" d="M15.86 8.42c-.05-.07-.31-.62-1.6-1.76-1.33-1.19-1.15-1 .46-3.05.99-1.25 1.38-2.02 1.26-2.34s-.84-.23-.84-.23l-2.4.01s-.19-.02-.32.05-.21.25-.21.25-.38.97-.9 1.8c-1.06 1.73-1.5 1.82-1.67 1.72-.4-.26-.3-1.02-.3-1.55 0-1.69.27-2.4-.52-2.57-.26-.06-.46-.1-1.13-.11-.85-.01-1.58 0-2 .2-.27.12-.48.4-.35.42.16.02.52.1.71.34.25.33.24 1.05.24 1.05s.14 1.98-.33 2.23c-.33.17-.77-.18-1.73-1.76-.48-.8-.85-1.7-.85-1.7s-.08-.17-.2-.25a1 1 0 0 0-.37-.15l-2.29.02s-.34 0-.47.15c-.11.13 0 .39 0 .39s1.78 4 3.81 6.02c1.86 1.85 3.97 1.73 3.97 1.73h.95s.3-.03.44-.19c.14-.14.13-.4.13-.4s-.02-1.22.58-1.4c.59-.18 1.34 1.18 2.14 1.7.6.4 1.06.32 1.06.32l2.14-.03s1.12-.07.59-.9Z"/></symbol><use xlink:href="#sprite-vk" width="16" height="10" y="133"/><view id="sprite-vk-view" viewBox="0 133 16 10"/></svg>